<?xml version="1.0" standalone="no"?>
<!DOCTYPE svg PUBLIC "-//W3C//DTD SVG 20010904//EN"
 "http://www.w3.org/TR/2001/REC-SVG-20010904/DTD/svg10.dtd">
<svg version="1.0" xmlns="http://www.w3.org/2000/svg"
 width="1080.000000pt" height="1080.000000pt" viewBox="0 0 1080.000000 1080.000000"
 preserveAspectRatio="xMidYMid meet">
<metadata>
Created by potrace 1.14, written by Peter Selinger 2001-2017
</metadata>
<g transform="translate(0.000000,1080.000000) scale(0.100000,-0.100000)"
fill="#000000" stroke="none">
<path d="M4291 9847 c-13 -6 -34 -25 -45 -40 -21 -28 -21 -36 -20 -490 l1
-462 -18 140 c-46 353 -94 482 -200 536 -105 53 -334 68 -450 29 -107 -37
-211 -91 -260 -137 -74 -69 -88 -132 -110 -473 -13 -215 -7 -664 11 -725 30
-101 127 -182 245 -204 97 -18 346 -33 472 -28 149 5 204 21 257 74 48 49 66
100 75 223 5 58 9 90 10 73 3 -81 33 -501 52 -723 24 -294 43 -440 64 -480 17
-32 61 -60 96 -60 73 0 164 86 223 210 l31 65 7 265 c3 146 7 313 7 371 l1
107 123 4 c186 7 267 48 313 156 21 51 87 273 121 408 l28 111 1 -306 c1 -411
23 -585 85 -655 60 -69 277 -160 453 -191 220 -38 386 3 459 113 55 84 110
264 143 469 21 125 12 173 -38 199 l-30 16 30 18 c54 33 56 41 49 320 -4 140
-11 284 -17 320 -48 289 -148 375 -435 374 -158 0 -229 -16 -372 -85 -119 -57
-189 -120 -240 -214 l-32 -60 -1 76 c0 154 -83 388 -169 482 -101 110 -257
121 -505 37 l-88 -30 -67 61 c-71 64 -168 119 -210 119 -14 0 -37 -6 -50 -13z
m119 -112 c41 -26 104 -85 143 -134 l28 -33 82 30 c266 100 415 100 490 0 64
-85 123 -252 133 -376 8 -92 -4 -188 -48 -382 -60 -267 -142 -536 -176 -573
-33 -37 -83 -50 -212 -55 -71 -2 -141 0 -163 6 l-37 10 0 -56 c0 -31 -5 -219
-10 -417 l-10 -360 -29 -61 c-32 -69 -103 -147 -129 -142 -23 4 -37 64 -56
254 -74 740 -138 2259 -96 2309 15 18 40 13 90 -20z m-538 -256 c67 -14 124
-43 142 -72 58 -90 113 -424 136 -832 13 -224 3 -383 -28 -424 -10 -14 -36
-35 -58 -46 -35 -18 -58 -20 -239 -19 -304 1 -424 21 -488 82 -63 60 -62 50
-62 472 0 518 16 655 82 717 35 34 155 96 227 119 52 16 218 18 288 3z m2327
-118 c30 -11 67 -33 83 -47 65 -63 93 -213 104 -548 l7 -225 -29 -12 c-47 -18
-220 -55 -437 -94 -111 -20 -207 -38 -213 -40 -14 -4 23 -232 51 -314 26 -79
119 -141 210 -141 69 0 113 103 122 283 3 59 9 110 13 112 17 10 203 27 235
21 34 -7 35 -8 35 -51 0 -53 -42 -256 -70 -342 -46 -140 -70 -177 -143 -215
-37 -20 -55 -23 -162 -22 -146 2 -272 32 -410 99 -100 49 -116 60 -134 92 -57
109 -67 809 -15 1073 36 183 129 284 328 357 127 46 324 53 425 14z m-1962
-558 c-3 -10 -5 -2 -5 17 0 19 2 27 5 18 2 -10 2 -26 0 -35z m1763 -675 c-6
-36 -17 -74 -24 -83 -12 -16 -15 -16 -58 3 -26 11 -51 29 -57 39 -13 25 -54
224 -47 231 3 3 47 12 98 21 l93 16 3 -80 c2 -44 -2 -110 -8 -147z"/>
<path d="M4780 9411 c-30 -10 -72 -26 -92 -36 l-38 -19 0 -345 c1 -375 9 -518
34 -557 29 -43 147 -86 171 -62 9 9 41 192 81 467 43 295 43 377 0 464 -24 50
-76 108 -94 106 -4 0 -32 -8 -62 -18z m72 -118 c43 -72 40 -140 -17 -514 -40
-258 -46 -290 -58 -286 -21 7 -25 59 -28 432 l-4 378 35 13 c45 16 51 14 72
-23z"/>
<path d="M3671 9277 c-88 -35 -92 -49 -103 -304 -11 -245 1 -523 23 -550 45
-53 191 -56 219 -4 19 37 33 249 34 531 1 348 1 350 -71 350 -27 0 -73 -11
-102 -23z m85 -396 c-3 -174 -10 -336 -14 -361 -6 -42 -9 -45 -37 -45 -27 0
-30 4 -38 45 -9 50 -3 626 8 651 6 17 64 39 79 31 5 -3 6 -137 2 -321z"/>
<path d="M5858 9050 c-75 -13 -150 -58 -173 -105 -17 -34 -19 -59 -19 -161 1
-67 4 -138 8 -157 l7 -36 67 26 c37 13 133 47 214 75 l148 50 -6 57 c-11 103
-32 212 -44 226 -10 12 -45 21 -125 30 -16 2 -51 0 -77 -5z m134 -99 c4 -4 10
-38 14 -77 l7 -71 -114 -38 c-63 -21 -120 -40 -126 -43 -10 -3 -13 17 -13 81
0 102 4 113 42 133 55 28 165 37 190 15z"/>
<path d="M6548 9774 c-55 -29 -60 -56 -59 -288 1 -266 20 -583 67 -1116 41
-480 46 -503 95 -545 44 -36 102 -34 162 6 52 34 130 117 154 163 23 44 32
227 33 696 1 409 6 475 36 497 31 22 43 15 59 -39 19 -64 19 -150 0 -409 -20
-294 -38 -716 -31 -754 13 -69 75 -115 182 -134 72 -13 128 -2 162 32 27 27
35 56 87 317 90 453 130 749 120 875 -17 202 -85 407 -166 500 -84 96 -249
114 -432 48 -67 -24 -72 -25 -82 -8 -39 69 -126 127 -234 159 -67 20 -117 20
-153 0z m178 -108 c95 -44 119 -67 138 -135 9 -34 20 -61 23 -61 3 0 33 13 67
29 102 48 157 64 247 69 133 7 176 -22 238 -160 74 -163 97 -371 67 -593 -23
-163 -91 -549 -127 -720 -34 -158 -42 -170 -104 -159 -71 12 -115 34 -122 62
-7 31 11 471 33 772 18 247 14 352 -17 434 -38 103 -67 115 -160 69 -98 -50
-93 -20 -101 -613 -4 -283 -10 -539 -14 -568 -6 -61 -44 -117 -113 -169 -84
-64 -90 -53 -115 207 -69 714 -111 1514 -82 1559 12 19 71 9 142 -23z"/>
<path d="M8769 7867 c-114 -77 -133 -267 -134 -1355 l0 -733 -28 5 c-70 14
-342 18 -477 7 -272 -22 -465 -74 -567 -150 -57 -43 -143 -160 -173 -234 -18
-45 -20 -47 -16 -17 3 19 17 159 31 310 31 337 42 628 26 687 -25 91 -105 141
-205 129 -30 -3 -61 -9 -70 -12 -14 -5 -16 5 -16 72 0 101 -14 150 -54 190
-74 74 -183 69 -351 -15 -287 -144 -506 -399 -554 -646 l-16 -85 -51 0 c-28 0
-69 -6 -91 -14 l-39 -14 -13 102 c-21 169 -62 226 -163 226 -144 0 -391 -180
-533 -389 l-50 -73 -12 178 c-21 315 -36 394 -84 449 -42 48 -93 60 -167 41
-31 -8 -58 -14 -59 -13 -1 1 -6 38 -12 82 -16 115 -28 151 -62 190 -60 68
-149 67 -269 -5 -81 -48 -200 -149 -269 -228 l-53 -61 -78 68 c-43 37 -101 82
-129 101 -28 19 -54 44 -57 55 -36 109 -237 263 -567 434 -430 224 -822 371
-1280 482 -654 157 -1144 240 -1254 210 -130 -36 -214 -185 -260 -466 -11 -68
-14 -139 -10 -290 13 -462 78 -605 278 -605 l46 0 6 -44 c9 -61 44 -151 74
-186 31 -38 55 -51 118 -65 l50 -11 12 -295 c21 -505 52 -1175 93 -1979 42
-816 48 -921 84 -1453 26 -386 20 -366 157 -537 86 -109 547 -578 663 -674 83
-70 118 -86 190 -86 47 0 56 3 71 26 29 44 44 101 55 207 15 145 48 923 61
1437 6 239 13 477 17 528 l7 94 239 129 c216 117 323 178 586 332 185 109 403
276 578 443 57 53 104 95 106 93 1 -2 10 -76 20 -164 77 -705 271 -2139 302
-2228 37 -109 194 -303 307 -381 29 -20 73 -64 97 -97 64 -88 190 -202 262
-238 48 -25 74 -31 122 -31 77 0 121 22 162 82 62 92 176 498 270 961 l48 239
53 -224 c81 -335 83 -339 171 -473 95 -146 162 -220 250 -279 44 -30 77 -61
97 -93 44 -71 172 -196 230 -224 35 -17 67 -24 107 -24 100 0 139 49 188 236
58 226 163 803 288 1594 l19 120 -4 -125 c-11 -280 66 -644 200 -948 93 -212
201 -356 319 -429 45 -28 72 -55 108 -108 92 -136 223 -230 375 -271 86 -22
257 -29 368 -14 50 6 161 29 244 51 l153 38 42 -19 c47 -21 96 -25 145 -11 36
10 32 16 54 -106 17 -102 45 -153 99 -181 151 -78 376 79 548 383 84 149 89
175 117 583 130 1933 205 3756 177 4327 -7 137 -18 267 -27 303 -54 223 -231
490 -458 692 -47 41 -119 114 -161 162 -123 140 -305 280 -425 328 -71 28
-148 27 -192 -3z m176 -136 c251 -120 559 -488 626 -750 71 -275 33 -1695
-106 -3976 -48 -774 -64 -991 -80 -1036 -24 -66 -91 -186 -147 -261 -112 -152
-265 -250 -297 -190 -16 30 -40 174 -53 317 -7 74 -15 135 -19 135 -3 0 -39
-14 -80 -31 -200 -83 -444 -155 -619 -184 -220 -35 -406 -3 -538 94 -173 128
-375 639 -413 1047 -24 266 65 1161 202 2019 60 378 91 478 179 578 88 100
243 145 577 168 206 15 458 -2 575 -37 16 -5 17 29 11 568 -7 756 12 1365 48
1503 20 75 41 81 134 36z m-7887 -22 c202 -22 695 -121 1122 -226 377 -92 836
-272 1220 -478 307 -165 432 -268 468 -387 38 -123 81 -434 103 -744 13 -186
6 -627 -10 -694 -28 -110 -307 -410 -596 -641 -102 -81 -261 -190 -350 -239
-33 -19 -123 -70 -200 -116 -147 -86 -484 -269 -597 -325 l-66 -32 -6 -111
c-3 -61 -10 -307 -16 -547 -12 -513 -45 -1310 -60 -1457 -11 -101 -17 -132
-27 -132 -16 0 -147 117 -254 228 -141 145 -255 290 -269 342 -22 81 -125
1950 -190 3455 -10 253 -25 582 -31 730 -6 149 -13 272 -16 275 -3 3 -101 6
-219 6 -118 1 -225 5 -238 8 -50 12 -82 170 -93 448 -7 187 5 302 43 436 28
98 53 149 86 178 41 37 54 39 196 23z m3691 -1061 c31 -155 51 -549 96 -1868
14 -404 29 -838 35 -965 5 -126 10 -248 11 -270 2 -100 16 -13 144 855 103
701 162 1044 200 1171 21 74 103 225 166 309 117 156 303 301 387 304 l37 1
12 -80 c7 -44 37 -307 68 -585 158 -1433 203 -1816 223 -1879 5 -14 17 146 30
375 33 574 79 1298 103 1599 35 456 53 547 131 667 108 167 336 346 502 393
69 20 102 11 112 -31 4 -15 4 -100 1 -188 -40 -990 -582 -4656 -703 -4757 -22
-18 -94 23 -160 92 -98 104 -203 270 -219 349 -4 19 -31 134 -60 255 -30 121
-64 276 -75 345 -26 155 -112 789 -182 1343 -29 229 -55 417 -58 417 -3 0 -23
-102 -44 -227 -90 -538 -196 -1105 -307 -1643 -80 -386 -173 -733 -227 -840
-23 -47 -32 -55 -58 -58 -41 -4 -69 8 -141 62 -73 55 -171 174 -213 257 -34
65 -35 72 -125 729 -179 1304 -307 2492 -322 2990 -7 231 -2 263 65 398 108
217 423 532 534 532 24 0 28 -5 37 -52z"/>
<path d="M8151 5103 c-23 -12 -38 -28 -43 -48 -24 -92 -99 -1574 -102 -2005
-1 -154 2 -185 22 -259 41 -151 112 -282 195 -363 57 -55 92 -71 136 -63 125
23 423 147 464 193 18 20 18 42 -2 709 -12 378 -25 859 -31 1068 -5 209 -12
411 -15 450 -6 74 -39 162 -78 204 -79 84 -454 163 -546 114z m494 -425 c2 -2
8 -181 14 -398 7 -217 18 -622 26 -900 8 -278 17 -559 21 -626 l6 -121 -106
-46 c-156 -69 -153 -69 -163 -10 -11 65 -8 236 11 703 27 647 59 1257 72 1364
l6 49 55 -6 c30 -3 56 -7 58 -9z"/>
<path d="M2250 6403 c0 -21 -18 -474 -39 -1008 -22 -533 -37 -972 -35 -974 7
-8 81 54 158 133 268 275 834 1044 921 1252 22 53 19 84 -13 135 -74 116 -311
265 -602 379 -93 36 -359 120 -381 120 -5 0 -9 -17 -9 -37z m521 -462 c175
-60 329 -128 329 -146 0 -28 -433 -654 -453 -655 -4 0 -5 17 -2 38 2 20 9 183
15 362 10 294 17 430 24 430 1 0 40 -13 87 -29z"/>
</g>
</svg>
